<svg width="86" height="86" viewBox="0 0 86 86" fill="none" xmlns="http://www.w3.org/2000/svg">
<g filter="url(#filter0_d_168_284)">
<path fill-rule="evenodd" clip-rule="evenodd" d="M43 58C55.7025 58 66 47.7025 66 35C66 22.2975 55.7025 12 43 12C30.2975 12 20 22.2975 20 35C20 47.7025 30.2975 58 43 58Z" fill="#5D3EDE"/>
</g>
<path d="M51.16 23H34.84C32.7192 23 31 24.7192 31 26.84V43.16C31 45.2808 32.7192 47 34.84 47H51.16C53.2808 47 55 45.2808 55 43.16V26.84C55 24.7192 53.2808 23 51.16 23Z" fill="#876AFD"/>
<path d="M43.48 27.8H42.52C41.9899 27.8 41.56 28.2299 41.56 28.76V32.6C41.56 33.1302 41.1302 33.56 40.6 33.56H36.76C36.2299 33.56 35.8 33.9899 35.8 34.52V35.48C35.8 36.0102 36.2299 36.44 36.76 36.44H40.6C41.1302 36.44 41.56 36.8699 41.56 37.4V41.24C41.56 41.7702 41.9899 42.2 42.52 42.2H43.48C44.0102 42.2 44.44 41.7702 44.44 41.24V37.4C44.44 36.8699 44.8699 36.44 45.4 36.44H49.24C49.7702 36.44 50.2 36.0102 50.2 35.48V34.52C50.2 33.9899 49.7702 33.56 49.24 33.56H45.4C44.8699 33.56 44.44 33.1302 44.44 32.6V28.76C44.44 28.2299 44.0102 27.8 43.48 27.8Z" fill="#5D3EDE"/>
<defs>
<filter id="filter0_d_168_284" x="0" y="0" width="86" height="86" filterUnits="userSpaceOnUse" color-interpolation-filters="sRGB">
<feFlood flood-opacity="0" result="BackgroundImageFix"/>
<feColorMatrix in="SourceAlpha" type="matrix" values="0 0 0 0 0 0 0 0 0 0 0 0 0 0 0 0 0 0 127 0" result="hardAlpha"/>
<feOffset dy="8"/>
<feGaussianBlur stdDeviation="10"/>
<feColorMatrix type="matrix" values="0 0 0 0 0.364706 0 0 0 0 0.243137 0 0 0 0 0.870588 0 0 0 0.3 0"/>
<feBlend mode="normal" in2="BackgroundImageFix" result="effect1_dropShadow_168_284"/>
<feBlend mode="normal" in="SourceGraphic" in2="effect1_dropShadow_168_284" result="shape"/>
</filter>
</defs>
</svg>
