<svg width="22" height="22" viewBox="0 0 22 22" fill="none" xmlns="http://www.w3.org/2000/svg">
<rect x="0.00012207" width="22" height="22" rx="5" fill="#5D3EDE"/>
<path d="M16.0001 6H6.00012C5.44784 6 5.00012 6.44772 5.00012 7C5.00012 7.55228 5.44784 8 6.00012 8H16.0001C16.5524 8 17.0001 7.55228 17.0001 7C17.0001 6.44772 16.5524 6 16.0001 6Z" fill="white"/>
<path d="M15.0001 12H7.00012C6.44784 12 6.00012 11.5523 6.00012 11C6.00012 10.4477 6.44784 10 7.00012 10H15.0001C15.5524 10 16.0001 10.4477 16.0001 11C16.0001 11.5523 15.5524 12 15.0001 12Z" fill="white"/>
<path d="M14.0001 14H8.00012C7.44784 14 7.00012 14.4477 7.00012 15C7.00012 15.5523 7.44784 16 8.00012 16H14.0001C14.5524 16 15.0001 15.5523 15.0001 15C15.0001 14.4477 14.5524 14 14.0001 14Z" fill="white"/>
<path d="M16.0001 6H6.00012C5.44784 6 5.00012 6.44772 5.00012 7C5.00012 7.55228 5.44784 8 6.00012 8H16.0001C16.5524 8 17.0001 7.55228 17.0001 7C17.0001 6.44772 16.5524 6 16.0001 6Z" stroke="white"/>
<path d="M15.0001 12H7.00012C6.44784 12 6.00012 11.5523 6.00012 11C6.00012 10.4477 6.44784 10 7.00012 10H15.0001C15.5524 10 16.0001 10.4477 16.0001 11C16.0001 11.5523 15.5524 12 15.0001 12Z" stroke="white"/>
<path d="M14.0001 14H8.00012C7.44784 14 7.00012 14.4477 7.00012 15C7.00012 15.5523 7.44784 16 8.00012 16H14.0001C14.5524 16 15.0001 15.5523 15.0001 15C15.0001 14.4477 14.5524 14 14.0001 14Z" stroke="white"/>
</svg>
