<svg width="52" height="24" viewBox="0 0 52 24" fill="none" xmlns="http://www.w3.org/2000/svg">
<rect width="52" height="24" rx="5" fill="#5D3EDE"/>
<path d="M12.1635 17H10.6493L14.0517 7.54545H15.6998L19.1021 17H17.5879L14.915 9.26278H14.8411L12.1635 17ZM12.4174 13.2976H17.3294V14.4979H12.4174V13.2976ZM20.3566 17V9.90909H21.6908V11.0355H21.7646C21.8939 10.6539 22.1217 10.3538 22.4479 10.1353C22.7772 9.91371 23.1496 9.80291 23.5651 9.80291C23.6512 9.80291 23.7528 9.80599 23.8698 9.81214C23.9898 9.8183 24.0837 9.82599 24.1514 9.83523V11.1555C24.096 11.1402 23.9975 11.1232 23.8559 11.1048C23.7143 11.0832 23.5728 11.0724 23.4312 11.0724C23.105 11.0724 22.8141 11.1417 22.5587 11.2802C22.3063 11.4156 22.1063 11.6049 21.9585 11.848C21.8108 12.0881 21.7369 12.362 21.7369 12.6697V17H20.3566ZM29.0748 9.90909V11.017H25.2016V9.90909H29.0748ZM26.2403 8.21023H27.6206V14.918C27.6206 15.1857 27.6607 15.3873 27.7407 15.5227C27.8207 15.6551 27.9238 15.7459 28.05 15.7951C28.1792 15.8413 28.3193 15.8643 28.4701 15.8643C28.5809 15.8643 28.6778 15.8567 28.7609 15.8413C28.844 15.8259 28.9086 15.8136 28.9548 15.8043L29.2041 16.9446C29.1241 16.9754 29.0102 17.0062 28.8625 17.0369C28.7148 17.0708 28.5301 17.0893 28.3085 17.0923C27.9453 17.0985 27.6068 17.0339 27.2929 16.8984C26.979 16.763 26.7251 16.5537 26.5312 16.2706C26.3373 15.9875 26.2403 15.632 26.2403 15.2042V8.21023Z" fill="white"/>
<path d="M38.5 13L36.5 15C36.2239 15.2761 35.7761 15.2761 35.5 15C35.2239 14.7239 35.2239 14.2761 35.5 14L37.5 12L35.5 10C35.2239 9.72386 35.2239 9.27614 35.5 9C35.7761 8.72386 36.2239 8.72386 36.5 9L38.5 11L40.5 9C40.7761 8.72386 41.2239 8.72386 41.5 9C41.7761 9.27614 41.7761 9.72386 41.5 10L39.5 12L41.5 14C41.7761 14.2761 41.7761 14.7239 41.5 15C41.2239 15.2761 40.7761 15.2761 40.5 15L38.5 13Z" fill="#00ECAA" stroke="#00ECAA"/>
</svg>
