<svg width="36" height="38" viewBox="0 0 36 38" fill="none" xmlns="http://www.w3.org/2000/svg">
<path d="M18.5804 23.7023L30.8752 37.0216C30.8798 37.0266 30.8862 37.0294 30.8929 37.0294C33.1612 37.0294 35 35.19 35 32.9218C35 32.9154 34.9975 32.9092 34.9929 32.9047L19.0441 16.9559L3.20989 1.12164C3.15977 1.07152 3.07395 1.10013 3.06392 1.17029C2.42588 5.63662 3.76789 10.1591 6.73884 13.5545L16.318 24.502C16.4079 24.6048 16.5558 24.6339 16.6779 24.5728L18.4622 23.6807C18.502 23.6608 18.5502 23.6696 18.5804 23.7023Z" fill="#A6A6A6" stroke="#A6A6A6"/>
<path d="M14.1996 26.523L10.5063 22.8297C10.3891 22.7125 10.1991 22.7125 10.082 22.8297L1.09364 31.818C1.05176 31.8599 1.02321 31.9132 1.0116 31.9713L0.588348 34.0876C0.30846 35.487 1.5423 36.7208 2.94174 36.4409L5.05799 36.0177C5.11607 36.0061 5.16941 35.9775 5.21129 35.9357L14.1996 26.9473C14.3168 26.8302 14.3168 26.6402 14.1996 26.523Z" fill="#A6A6A6"/>
<path d="M23.5366 17.3306L19.6987 13.4927C19.6138 13.4078 19.5877 13.2806 19.6323 13.1692L21.5948 8.26294C21.6099 8.22522 21.6325 8.19095 21.6612 8.16223L27.582 2.24143C27.6991 2.12427 27.8891 2.12427 28.0063 2.24143L28.6114 2.84658C28.7286 2.96373 28.7286 3.15368 28.6114 3.27084L23.8886 7.99364C23.7714 8.11079 23.7714 8.30074 23.8886 8.4179L25.5232 10.0525C25.6403 10.1696 25.8303 10.1696 25.9474 10.0525L30.6702 5.32966C30.7874 5.21251 30.9773 5.21251 31.0945 5.32966L31.6996 5.93481C31.8168 6.05197 31.8168 6.24192 31.6996 6.35908L26.9768 11.0819C26.8597 11.199 26.8597 11.389 26.9768 11.5061L28.6114 13.1407C28.7286 13.2579 28.9185 13.2579 29.0357 13.1407L33.7585 8.4179C33.8756 8.30074 34.0656 8.30074 34.1827 8.4179L34.7879 9.02305C34.905 9.1402 34.905 9.33015 34.7879 9.44731L28.8671 15.3681C28.8383 15.3968 28.8041 15.4194 28.7664 15.4345L23.8601 17.397C23.7487 17.4416 23.6215 17.4155 23.5366 17.3306Z" fill="#A6A6A6"/>
<path d="M14.1996 26.523L10.5063 22.8297C10.3891 22.7125 10.1991 22.7125 10.082 22.8297L1.09364 31.818C1.05176 31.8599 1.02321 31.9132 1.0116 31.9713L0.588348 34.0876C0.30846 35.487 1.5423 36.7208 2.94174 36.4409L5.05799 36.0177C5.11607 36.0061 5.16941 35.9775 5.21129 35.9357L14.1996 26.9473C14.3168 26.8302 14.3168 26.6402 14.1996 26.523Z" stroke="#A6A6A6" stroke-width="0.5"/>
<path d="M23.5366 17.3306L19.6987 13.4927C19.6138 13.4078 19.5877 13.2806 19.6323 13.1692L21.5948 8.26294C21.6099 8.22522 21.6325 8.19095 21.6612 8.16223L27.582 2.24143C27.6991 2.12427 27.8891 2.12427 28.0063 2.24143L28.6114 2.84658C28.7286 2.96373 28.7286 3.15368 28.6114 3.27084L23.8886 7.99364C23.7714 8.11079 23.7714 8.30074 23.8886 8.4179L25.5232 10.0525C25.6403 10.1696 25.8303 10.1696 25.9474 10.0525L30.6702 5.32966C30.7874 5.21251 30.9773 5.21251 31.0945 5.32966L31.6996 5.93481C31.8168 6.05197 31.8168 6.24192 31.6996 6.35908L26.9768 11.0819C26.8597 11.199 26.8597 11.389 26.9768 11.5061L28.6114 13.1407C28.7286 13.2579 28.9185 13.2579 29.0357 13.1407L33.7585 8.4179C33.8756 8.30074 34.0656 8.30074 34.1827 8.4179L34.7879 9.02305C34.905 9.1402 34.905 9.33015 34.7879 9.44731L28.8671 15.3681C28.8383 15.3968 28.8041 15.4194 28.7664 15.4345L23.8601 17.397C23.7487 17.4416 23.6215 17.4155 23.5366 17.3306Z" stroke="#A6A6A6" stroke-width="0.5"/>
</svg>
