<svg width="15" height="20" viewBox="0 0 15 20" fill="none" xmlns="http://www.w3.org/2000/svg">
<path fill-rule="evenodd" clip-rule="evenodd" d="M3.7082 0.936771C6.00231 -0.332726 8.82213 -0.310537 11.0947 0.994894C13.3449 2.32691 14.7126 4.70418 14.6998 7.26144C14.6475 9.80194 13.181 12.19 11.3478 14.0361C10.2898 15.1064 9.10625 16.0528 7.82129 16.856C7.68895 16.9289 7.54399 16.9777 7.39356 17C7.24878 16.9941 7.10778 16.9534 6.98329 16.8814C5.02155 15.6746 3.3005 14.134 1.90295 12.334C0.733518 10.8314 0.0691275 9.01601 1.21982e-06 7.13442C-0.00151691 4.57225 1.4141 2.20627 3.7082 0.936771ZM5.03376 8.19481C5.41965 9.10087 6.33052 9.69187 7.34107 9.69188C8.00309 9.6964 8.63948 9.44386 9.10843 8.99051C9.57739 8.53715 9.83994 7.92067 9.83759 7.27841C9.84113 6.29806 9.23511 5.41234 8.30251 5.0348C7.36991 4.65726 6.29468 4.86238 5.57887 5.55438C4.86306 6.24638 4.64786 7.28875 5.03376 8.19481Z" fill="#A6A6A6"/>
<path opacity="0.4" d="M7.3501 20C10.2496 20 12.6001 19.5523 12.6001 19C12.6001 18.4477 10.2496 18 7.3501 18C4.4506 18 2.1001 18.4477 2.1001 19C2.1001 19.5523 4.4506 20 7.3501 20Z" fill="#A6A6A6"/>
</svg>
