<svg width="25" height="25" viewBox="0 0 25 25" fill="none" xmlns="http://www.w3.org/2000/svg">
<path d="M20.7755 0.244629H4.23788C2.08883 0.244629 0.34668 2.02091 0.34668 4.16996V20.8526C0.34668 23.0017 2.08883 24.778 4.23788 24.778H20.7755C22.9245 24.778 24.6667 23.0017 24.6667 20.8526V4.16996C24.6667 2.02091 22.9245 0.244629 20.7755 0.244629Z" fill="#876AFD"/>
<path d="M12.9931 5.15137H12.0203C11.483 5.15137 11.0475 5.59073 11.0475 6.1327V10.058C11.0475 10.6 10.612 11.0394 10.0747 11.0394H6.18349C5.64623 11.0394 5.21069 11.4787 5.21069 12.0207V13.002C5.21069 13.544 5.64623 13.9834 6.18349 13.9834H10.0747C10.612 13.9834 11.0475 14.4227 11.0475 14.9647V18.89C11.0475 19.432 11.483 19.8714 12.0203 19.8714H12.9931C13.5304 19.8714 13.9659 19.432 13.9659 18.89V14.9647C13.9659 14.4227 14.4014 13.9834 14.9387 13.9834H18.8299C19.3672 13.9834 19.8027 13.544 19.8027 13.002V12.0207C19.8027 11.4787 19.3672 11.0394 18.8299 11.0394H14.9387C14.4014 11.0394 13.9659 10.6 13.9659 10.058V6.1327C13.9659 5.59073 13.5304 5.15137 12.9931 5.15137Z" fill="#5D3EDE"/>
</svg>
